<?xml version="1.0" encoding="UTF-8"?>
<svg width="346px" height="347px" viewBox="0 0 346 347" version="1.1" xmlns="http://www.w3.org/2000/svg" xmlns:xlink="http://www.w3.org/1999/xlink">
    <!-- Generator: Sketch 51.2 (57519) - http://www.bohemiancoding.com/sketch -->
    <title>Group 3</title>
    <desc>Created with Sketch.</desc>
    <defs></defs>
    <g id="Page-1" stroke="none" stroke-width="1" fill="none" fill-rule="evenodd">
        <g id="Group-3">
            <path d="M148.04,138.44 C185,138.44 201.32,122.6 201.32,101.96 L201.32,98.6 C201.32,74.6 184.04,58.76 154.28,58.76 C126.92,58.76 101.96,73.16 85.16,98.6 L39.56,56.36 C65.48,23.24 98.6,0.2 157.16,0.2 C229.64,0.2 277.16,35.24 277.16,89 C277.16,131.72 247.4,158.12 211.88,164.36 L211.88,167.24 C252.68,174.44 283.4,201.8 283.4,247.88 C283.4,307.88 231.56,346.76 152.36,346.76 C85.16,346.76 50.12,316.04 28.52,282.44 L81.8,241.16 C96.68,268.52 116.84,288.2 153.8,288.2 C187.88,288.2 207.56,270.92 207.56,243.08 L207.56,239.72 C207.56,212.36 185,198.44 147.56,198.44 L116.36,198.44 L116.36,138.44 L148.04,138.44 Z" id="3-copy-4" fill="#6818FF"></path>
            <path d="M17.56,161.768 C7.064,161.768 2.2,155.432 2.2,144.744 C2.2,127.4 10.264,115.56 22.872,115.56 C32.792,115.56 37.208,120.936 37.656,128.68 L28.504,130.536 C28.248,126.312 27.096,123.24 22.488,123.24 C17.24,123.24 14.616,127.72 13.4,134.888 L12.248,141.864 C11.992,143.4 11.736,144.808 11.736,146.856 C11.736,151.336 13.528,154.088 18.2,154.088 C22.296,154.088 24.92,150.696 26.648,146.472 L34.776,148.904 C31.256,157.288 26.2,161.768 17.56,161.768 Z M48.984,161 L39.64,161 L47.128,116.328 L63.256,116.328 C71.192,116.328 75.416,121.128 75.416,128.232 C75.416,136.104 71.384,141.544 64.728,143.4 L70.808,161 L60.824,161 L55.896,144.36 L51.8,144.36 L48.984,161 Z M58.136,136.936 C62.744,136.936 64.536,135.528 65.112,131.816 L65.368,130.28 C65.496,129.512 65.56,128.808 65.56,128.168 C65.56,125.224 63.64,123.944 60.504,123.944 L55.192,123.944 L53.016,136.936 L58.136,136.936 Z M78.232,161 L85.72,116.328 L114.264,116.328 L112.984,124.136 L93.784,124.136 L92.056,134.504 L110.36,134.504 L109.08,142.312 L90.712,142.312 L88.92,153.192 L108.056,153.192 L106.776,161 L78.232,161 Z M139.8,161 L138.712,150.184 L126.168,150.184 L121.752,161 L111.832,161 L131.48,116.328 L144.664,116.328 L149.528,161 L139.8,161 Z M136.984,125.608 L136.408,125.608 L129.368,142.504 L138.328,142.504 L136.984,125.608 Z M179.928,124.136 L173.784,161 L164.312,161 L170.456,124.136 L157.528,124.136 L158.808,116.328 L194.136,116.328 L192.856,124.136 L179.928,124.136 Z M193.048,161 L194.2,153.96 L203.864,153.96 L208.984,123.368 L199.32,123.368 L200.472,116.328 L229.272,116.328 L228.12,123.368 L218.456,123.368 L213.336,153.96 L223,153.96 L221.848,161 L193.048,161 Z M239.128,161 L234.84,116.328 L244.952,116.328 L246.488,138.792 L247.064,151.912 L247.64,151.912 L252.632,138.792 L261.336,116.328 L271.704,116.328 L252.632,161 L239.128,161 Z M270.232,161 L277.72,116.328 L306.264,116.328 L304.984,124.136 L285.784,124.136 L284.056,134.504 L302.36,134.504 L301.08,142.312 L282.712,142.312 L280.92,153.192 L300.056,153.192 L298.776,161 L270.232,161 Z M17.56,217.768 C7.064,217.768 2.2,211.432 2.2,200.744 C2.2,183.4 10.264,171.56 22.872,171.56 C32.792,171.56 37.208,176.936 37.656,184.68 L28.504,186.536 C28.248,182.312 27.096,179.24 22.488,179.24 C17.24,179.24 14.616,183.72 13.4,190.888 L12.248,197.864 C11.992,199.4 11.736,200.808 11.736,202.856 C11.736,207.336 13.528,210.088 18.2,210.088 C22.296,210.088 24.92,206.696 26.648,202.472 L34.776,204.904 C31.256,213.288 26.2,217.768 17.56,217.768 Z M55.256,217.768 C44.44,217.768 39.704,211.368 39.704,200.936 C39.704,185.768 45.528,171.56 59.736,171.56 C70.552,171.56 75.288,177.96 75.288,188.392 C75.288,203.56 69.464,217.768 55.256,217.768 Z M55.256,210.088 C60.632,210.088 62.744,205.864 63.96,198.568 L65.24,190.888 C65.496,189.352 65.624,187.88 65.624,186.28 C65.624,181.864 63.768,179.24 59.736,179.24 C54.36,179.24 52.248,183.464 51.032,190.76 L49.752,198.44 C49.496,199.976 49.368,201.448 49.368,203.048 C49.368,207.464 51.224,210.088 55.256,210.088 Z M84.888,172.328 L98.008,172.328 C107.992,172.328 113.432,178.216 113.432,188.776 C113.432,206.376 105.816,217 91.928,217 L77.4,217 L84.888,172.328 Z M92.12,209.512 C97.816,209.512 101.016,206.312 102.168,199.4 L103.512,191.336 C103.768,189.8 103.896,188.2 103.896,186.984 C103.896,182.12 101.72,179.816 97.176,179.816 L93.016,179.816 L88.088,209.512 L92.12,209.512 Z M116.248,217 L117.4,209.96 L127.064,209.96 L132.184,179.368 L122.52,179.368 L123.672,172.328 L152.472,172.328 L151.32,179.368 L141.656,179.368 L136.536,209.96 L146.2,209.96 L145.048,217 L116.248,217 Z M167.768,187.048 L167.128,187.048 L162.136,217 L153.88,217 L161.304,172.328 L172.696,172.328 L177.88,202.28 L178.52,202.28 L183.512,172.328 L191.768,172.328 L184.344,217 L172.952,217 L167.768,187.048 Z M215.96,210.536 L215.384,210.536 C213.144,214.504 210.904,217.768 205.72,217.768 C198.424,217.768 193.88,212.072 193.88,201.32 C193.88,184.36 200.856,171.56 214.552,171.56 C223.832,171.56 228.12,177 228.696,184.744 L219.544,186.536 C219.224,182.696 218.136,179.24 213.72,179.24 C208.856,179.24 206.296,183.656 205.144,190.568 L204.056,197.096 C203.8,198.632 203.544,200.936 203.544,202.664 C203.544,207.144 205.4,210.088 209.496,210.088 C213.976,210.088 216.6,206.824 217.24,202.984 L217.752,199.912 L209.88,199.912 L210.968,193.192 L227.224,193.192 L223.256,217 L214.872,217 L215.96,210.536 Z" id="CREATIVE-CODING’17-Copy-4" fill="#FF6818"></path>
            <polygon id="Path" fill="#18FF68" points="250.264 169.64 262.296 169.64 250.136 190.44 243.224 190.44"></polygon>
            <polygon id="Path" fill="#18FF68" points="270.04 217 271.32 209.32 282.584 209.32 287.256 181.352 276.632 186.856 273.56 179.752 288.28 172.328 298.2 172.328 292.056 209.32 302.296 209.32 301.016 217"></polygon>
            <polygon id="Path" fill="#18FF68" points="313.24 217 334.744 180.072 320.344 180.072 319 188.2 310.936 188.2 313.56 172.328 345.688 172.328 344.28 180.584 323.48 217"></polygon>
            <path d="M7.16,234.856 C6.128,234.856 5.768,234.4 5.768,233.896 C5.768,233.704 5.816,233.488 5.864,233.2 C5.984,232.48 6.488,232.048 7.448,232.048 C8.48,232.048 8.84,232.504 8.84,233.008 C8.84,233.2 8.792,233.416 8.744,233.704 C8.624,234.424 8.12,234.856 7.16,234.856 Z M5.528,250.288 C4.328,250.288 3.68,249.592 3.68,248.632 C3.68,248.32 3.752,247.96 3.8,247.672 L5.432,239.224 L0.968,239.224 L1.232,237.616 L7.616,237.616 L5.528,248.416 L6.08,248.632 L10.808,244.552 L11.936,245.608 L9.752,247.624 C7.496,249.712 6.608,250.288 5.528,250.288 Z M14.816,250 L16.88,237.616 L18.752,237.616 L18.272,240.544 L18.368,240.544 C19.28,238.576 20.504,237.328 22.496,237.328 C24.56,237.328 25.856,238.648 25.856,240.904 C25.856,241.384 25.808,241.96 25.712,242.512 L24.464,250 L22.592,250 L23.816,242.68 C23.912,242.104 23.936,241.624 23.936,241.36 C23.936,239.896 23.264,238.984 21.872,238.984 C20.792,238.984 19.952,239.512 19.256,240.328 C18.992,240.64 18.08,241.744 17.84,243.16 L16.688,250 L14.816,250 Z M34.28,250.288 C31.208,250.288 29.6,248.152 29.6,245.056 C29.6,240.328 32.456,237.328 35.984,237.328 C38.6,237.328 39.872,238.672 40.304,240.304 L38.696,240.928 C38.216,239.416 37.304,238.96 35.768,238.96 C33.656,238.96 32.288,240.376 31.856,242.968 L31.616,244.408 C31.52,244.984 31.496,245.248 31.496,245.56 C31.496,247.672 32.72,248.656 34.52,248.656 C35.624,248.656 36.68,248.344 38.648,245.632 L39.992,246.424 C38.432,248.944 36.872,250.288 34.28,250.288 Z M46.472,250 L48.272,239.224 L44.792,239.224 L45.056,237.616 L50.408,237.616 L49.856,240.928 L49.976,240.928 C50.84,238.96 52.088,237.616 54.464,237.616 L56.336,237.616 L56.024,239.488 L53.912,239.488 C52.472,239.488 51.584,239.872 50.84,240.736 C50.528,241.096 49.664,242.104 49.424,243.544 L48.344,250 L46.472,250 Z M63.248,250.288 C60.128,250.288 58.352,248.536 58.352,244.984 C58.352,240.496 61.184,237.328 65.168,237.328 C67.592,237.328 69.368,238.504 69.368,240.664 C69.368,242.416 68.24,244.576 60.344,244.792 C60.32,245.032 60.32,245.296 60.32,245.344 C60.32,247.072 60.824,248.68 63.416,248.68 C65.192,248.68 66.224,247.912 67.616,245.944 L68.936,246.76 C67.544,249.04 65.864,250.288 63.248,250.288 Z M65,238.888 C62.504,238.888 60.872,240.448 60.512,243.256 L60.488,243.496 C66.536,243.304 67.448,241.936 67.448,240.736 C67.448,239.728 66.8,238.888 65,238.888 Z M80.672,247.072 L80.6,247.072 C79.64,249.016 78.392,250.288 76.208,250.288 C73.712,250.288 72.344,248.656 72.344,245.488 C72.344,242.176 73.832,237.328 78.2,237.328 C80.024,237.328 81.296,238.168 81.824,239.776 L81.896,239.776 L83.168,232.24 L85.04,232.24 L82.064,250 L80.192,250 L80.672,247.072 Z M76.856,248.632 C77.888,248.632 78.896,248.224 79.76,247.264 C80.384,246.568 80.936,245.584 81.128,244.432 L81.584,241.696 C81.872,239.968 80.6,238.984 78.752,238.984 C76.376,238.984 75.008,240.568 74.624,242.872 L74.336,244.6 C74.264,245.032 74.24,245.368 74.24,245.68 C74.24,247.528 75.128,248.632 76.856,248.632 Z M93.56,234.856 C92.528,234.856 92.168,234.4 92.168,233.896 C92.168,233.704 92.216,233.488 92.264,233.2 C92.384,232.48 92.888,232.048 93.848,232.048 C94.88,232.048 95.24,232.504 95.24,233.008 C95.24,233.2 95.192,233.416 95.144,233.704 C95.024,234.424 94.52,234.856 93.56,234.856 Z M91.928,250.288 C90.728,250.288 90.08,249.592 90.08,248.632 C90.08,248.32 90.152,247.96 90.2,247.672 L91.832,239.224 L87.368,239.224 L87.632,237.616 L94.016,237.616 L91.928,248.416 L92.48,248.632 L97.208,244.552 L98.336,245.608 L96.152,247.624 C93.896,249.712 93.008,250.288 91.928,250.288 Z M104.048,232.24 L105.92,232.24 L104.528,240.544 L104.6,240.544 C105.56,238.6 106.808,237.328 108.992,237.328 C111.488,237.328 112.856,238.96 112.856,242.128 C112.856,245.44 111.368,250.288 107,250.288 C105.176,250.288 103.904,249.448 103.376,247.84 L103.304,247.84 L102.944,250 L101.072,250 L104.048,232.24 Z M106.424,248.632 C108.8,248.632 110.192,247.048 110.576,244.744 L110.864,243.016 C110.936,242.584 110.96,242.248 110.96,241.936 C110.96,240.088 110.072,238.984 108.344,238.984 C107.312,238.984 106.304,239.392 105.44,240.352 C104.816,241.048 104.264,242.032 104.072,243.184 L103.616,245.92 C103.328,247.648 104.576,248.632 106.424,248.632 Z M120.176,250.288 C118.88,250.288 118.376,249.568 118.376,248.584 C118.376,248.368 118.4,248.032 118.448,247.816 L121.136,233.848 L116.768,233.848 L117.032,232.24 L123.344,232.24 L120.224,248.44 L120.824,248.632 L125.744,244.456 L126.824,245.512 L124.328,247.768 C122,249.88 121.136,250.288 120.176,250.288 Z M135.248,250.288 C132.128,250.288 130.352,248.536 130.352,244.984 C130.352,240.496 133.184,237.328 137.168,237.328 C139.592,237.328 141.368,238.504 141.368,240.664 C141.368,242.416 140.24,244.576 132.344,244.792 C132.32,245.032 132.32,245.296 132.32,245.344 C132.32,247.072 132.824,248.68 135.416,248.68 C137.192,248.68 138.224,247.912 139.616,245.944 L140.936,246.76 C139.544,249.04 137.864,250.288 135.248,250.288 Z M137,238.888 C134.504,238.888 132.872,240.448 132.512,243.256 L132.488,243.496 C138.536,243.304 139.448,241.936 139.448,240.736 C139.448,239.728 138.8,238.888 137,238.888 Z M158.816,250 L160.88,237.616 L162.752,237.616 L162.272,240.544 L162.368,240.544 C163.28,238.576 164.504,237.328 166.496,237.328 C168.56,237.328 169.856,238.648 169.856,240.904 C169.856,241.384 169.808,241.96 169.712,242.512 L168.464,250 L166.592,250 L167.816,242.68 C167.912,242.104 167.936,241.624 167.936,241.36 C167.936,239.896 167.264,238.984 165.872,238.984 C164.792,238.984 163.952,239.512 163.256,240.328 C162.992,240.64 162.08,241.744 161.84,243.16 L160.688,250 L158.816,250 Z M178.448,250.288 C175.328,250.288 173.552,248.536 173.552,244.984 C173.552,240.496 176.384,237.328 180.368,237.328 C182.792,237.328 184.568,238.504 184.568,240.664 C184.568,242.416 183.44,244.576 175.544,244.792 C175.52,245.032 175.52,245.296 175.52,245.344 C175.52,247.072 176.024,248.68 178.616,248.68 C180.392,248.68 181.424,247.912 182.816,245.944 L184.136,246.76 C182.744,249.04 181.064,250.288 178.448,250.288 Z M180.2,238.888 C177.704,238.888 176.072,240.448 175.712,243.256 L175.688,243.496 C181.736,243.304 182.648,241.936 182.648,240.736 C182.648,239.728 182,238.888 180.2,238.888 Z M189.152,237.616 L190.928,237.616 L191.288,248.224 L191.408,248.224 L196.856,237.616 L198.656,237.616 L199.952,248.128 L200.072,248.128 L205.184,237.616 L206.984,237.616 L200.864,250 L198.632,250 L197.384,240.136 L197.264,240.136 L192.176,250 L189.824,250 L189.152,237.616 Z M226.904,255.088 C225.896,255.088 225.2,254.32 223.28,252.232 L221.816,250.624 L223.088,249.472 L226.784,253.408 L227.216,253.312 L229.568,239.224 L225.152,239.224 L225.416,237.616 L229.832,237.616 L230.264,235.048 C230.528,233.416 231.584,232.24 233.432,232.24 L237.584,232.24 L237.32,233.848 L232.328,233.848 L231.704,237.616 L236.72,237.616 L236.456,239.224 L231.44,239.224 L229.208,252.568 C228.992,253.912 228.344,255.088 226.904,255.088 Z M242.576,250.288 C241.28,250.288 240.776,249.568 240.776,248.584 C240.776,248.368 240.8,248.032 240.848,247.816 L243.536,233.848 L239.168,233.848 L239.432,232.24 L245.744,232.24 L242.624,248.44 L243.224,248.632 L248.144,244.456 L249.224,245.512 L246.728,247.768 C244.4,249.88 243.536,250.288 242.576,250.288 Z M260.192,250 L260.672,247.072 L260.6,247.072 C259.64,249.016 258.392,250.288 256.208,250.288 C253.712,250.288 252.344,248.656 252.344,245.488 C252.344,242.176 253.832,237.328 258.2,237.328 C260.024,237.328 261.296,238.168 261.824,239.776 L261.896,239.776 L262.256,237.616 L264.128,237.616 L262.064,250 L260.192,250 Z M256.856,248.632 C257.888,248.632 258.896,248.224 259.76,247.264 C260.384,246.568 260.936,245.584 261.128,244.432 L261.584,241.696 C261.872,239.968 260.6,238.984 258.752,238.984 C256.376,238.984 255.008,240.568 254.624,242.872 L254.336,244.6 C254.264,245.032 254.24,245.368 254.24,245.68 C254.24,247.528 255.128,248.632 256.856,248.632 Z M271.712,237.616 L270.08,248.512 L270.392,248.728 C274.376,248.2 276.464,244.624 276.464,241.048 C276.464,239.968 276.248,238.888 275.792,238 L277.592,237.472 C278.096,238.432 278.384,239.656 278.384,240.952 C278.384,245.992 274.592,250.192 270.128,250.192 C268.88,250.192 268.28,249.544 268.28,248.464 C268.28,248.224 268.328,247.864 268.376,247.576 L269.624,239.224 L266.984,239.224 L267.248,237.616 L271.712,237.616 Z M286.16,250.288 C282.992,250.288 281.336,248.152 281.336,245.056 C281.336,240.328 284.192,237.328 287.816,237.328 C291.032,237.328 292.664,239.464 292.664,242.56 C292.664,247.288 289.808,250.288 286.16,250.288 Z M286.256,248.656 C288.584,248.656 290,247.12 290.408,244.672 L290.648,243.232 C290.744,242.656 290.768,242.296 290.768,242.008 C290.768,239.92 289.592,238.96 287.744,238.96 C285.416,238.96 284,240.496 283.592,242.944 L283.352,244.384 C283.256,244.96 283.232,245.32 283.232,245.608 C283.232,247.696 284.408,248.656 286.256,248.656 Z M303.776,247.072 L303.68,247.072 C302.768,249.04 301.544,250.288 299.552,250.288 C297.488,250.288 296.192,248.968 296.192,246.712 C296.192,246.232 296.24,245.656 296.336,245.104 L297.584,237.616 L299.456,237.616 L298.232,244.936 C298.136,245.512 298.112,245.992 298.112,246.256 C298.112,247.72 298.784,248.632 300.176,248.632 C301.256,248.632 302.096,248.104 302.792,247.288 C303.056,246.976 303.968,245.872 304.208,244.456 L305.36,237.616 L307.232,237.616 L305.168,250 L303.296,250 L303.776,247.072 Z M312.872,250 L314.672,239.224 L311.192,239.224 L311.456,237.616 L316.808,237.616 L316.256,240.928 L316.376,240.928 C317.24,238.96 318.488,237.616 320.864,237.616 L322.736,237.616 L322.424,239.488 L320.312,239.488 C318.872,239.488 317.984,239.872 317.24,240.736 C316.928,241.096 316.064,242.104 315.824,243.544 L314.744,250 L312.872,250 Z" id="incredible-new-flavo-copy-5" fill="#18FF68"></path>
        </g>
    </g>
</svg>